<svg width="512" height="512" viewBox="0 0 512 512" fill="none" xmlns="http://www.w3.org/2000/svg">
<g clip-path="url(#clip0_1_2)">
<path d="M179.333 275.167L236.833 332.667L332.667 198.5M486 256C486 286.204 480.051 316.112 468.492 344.017C456.934 371.922 439.992 397.277 418.635 418.635C397.277 439.992 371.922 456.934 344.017 468.492C316.112 480.051 286.204 486 256 486C225.796 486 195.888 480.051 167.983 468.492C140.078 456.934 114.723 439.992 93.3654 418.635C72.008 397.277 55.0663 371.922 43.5077 344.017C31.9491 316.112 26 286.204 26 256C26 195 50.2321 136.499 93.3654 93.3654C136.499 50.2321 195 26 256 26C317 26 375.501 50.2321 418.635 93.3654C461.768 136.499 486 195 486 256Z" stroke="#2ECC71" stroke-width="36" stroke-linecap="round" stroke-linejoin="round"/>
</g>
<defs>
<clipPath id="clip0_1_2">
<rect width="512" height="512" fill="white"/>
</clipPath>
</defs>
</svg>
