<svg width="334" height="334" viewBox="0 0 334 334" fill="none" xmlns="http://www.w3.org/2000/svg">
<g clip-path="url(#clip0_2_2)">
<rect width="334" height="334" fill="white"/>
<path d="M116 179.75L154.25 218L218 128.75M320 167C320 187.092 316.043 206.988 308.354 225.551C300.665 244.113 289.395 260.98 275.187 275.187C260.98 289.395 244.113 300.665 225.551 308.354C206.988 316.043 187.092 320 167 320C146.908 320 127.012 316.043 108.449 308.354C89.8866 300.665 73.02 289.395 58.8127 275.187C44.6053 260.98 33.3354 244.113 25.6464 225.551C17.9575 206.988 14 187.092 14 167C14 126.422 30.1196 87.5057 58.8127 58.8127C87.5057 30.1196 126.422 14 167 14C207.578 14 246.494 30.1196 275.187 58.8127C303.88 87.5057 320 126.422 320 167Z" stroke="black" stroke-width="25.5" stroke-linecap="round" stroke-linejoin="round"/>
</g>
<defs>
<clipPath id="clip0_2_2">
<rect width="334" height="334" fill="white"/>
</clipPath>
</defs>
</svg>
