<?xml version="1.0" standalone="no"?>
<!DOCTYPE svg PUBLIC "-//W3C//DTD SVG 20010904//EN"
 "http://www.w3.org/TR/2001/REC-SVG-20010904/DTD/svg10.dtd">
<svg version="1.0" xmlns="http://www.w3.org/2000/svg"
 width="512.000000pt" height="512.000000pt" viewBox="0 0 512.000000 512.000000"
 preserveAspectRatio="xMidYMid meet">
<metadata>
Created by potrace 1.14, written by Peter Selinger 2001-2017
</metadata>
<g transform="translate(0.000000,512.000000) scale(0.100000,-0.100000)"
fill="#000000" stroke="none">
<path d="M2379 5036 c-2 -2 -35 -6 -74 -10 -195 -17 -501 -91 -650 -156 -136
-59 -182 -81 -255 -118 -210 -110 -393 -246 -576 -427 -240 -237 -388 -447
-521 -740 -67 -147 -140 -359 -159 -465 -3 -14 -10 -45 -15 -70 -61 -266 -60
-707 2 -990 73 -334 184 -599 364 -870 199 -299 455 -547 770 -746 154 -97
410 -210 596 -263 158 -45 245 -63 429 -85 98 -12 487 -15 535 -3 11 2 47 8
80 12 32 4 68 9 80 11 11 2 31 6 45 9 655 126 1235 516 1606 1080 167 255 303
589 358 881 32 169 40 256 40 449 1 247 -10 368 -50 548 -18 83 -60 236 -73
269 -5 13 -19 50 -32 83 -182 487 -521 910 -964 1201 -193 126 -439 240 -656
302 -142 41 -232 61 -354 78 -27 3 -59 9 -70 11 -24 5 -451 14 -456 9z m526
-385 c310 -55 575 -160 835 -329 30 -20 57 -39 60 -42 3 -3 34 -27 70 -55 167
-128 336 -311 456 -495 64 -99 67 -103 109 -184 124 -233 203 -493 235 -771 8
-71 5 -429 -4 -475 -3 -14 -8 -43 -11 -64 -15 -104 -77 -348 -105 -411 -5 -11
-21 -49 -36 -85 -187 -461 -578 -873 -1034 -1089 -131 -62 -303 -125 -399
-146 -245 -54 -336 -64 -561 -60 -200 3 -284 14 -460 57 -245 59 -458 153
-670 293 -69 46 -134 91 -145 102 -11 10 -33 29 -50 41 -60 46 -190 179 -263
267 -98 120 -89 107 -158 215 -146 229 -244 476 -299 755 -38 193 -41 528 -5
735 34 205 102 414 193 595 38 77 135 242 157 268 6 6 31 39 56 72 300 397
742 679 1234 786 52 11 111 22 130 25 19 2 62 8 95 13 112 15 438 5 570 -18z"/>
<path d="M3275 3306 c-66 -24 -80 -39 -221 -242 -50 -71 -395 -557 -430 -604
-35 -48 -169 -234 -194 -270 -8 -12 -31 -44 -51 -70 l-35 -49 -225 225 c-243
243 -270 263 -349 250 -70 -11 -111 -44 -141 -110 -21 -48 -19 -96 5 -147 9
-20 157 -175 329 -346 335 -334 339 -337 429 -326 40 4 95 34 111 60 4 6 13
18 20 25 7 7 47 63 90 123 43 61 258 362 478 669 219 308 403 574 408 593 11
40 6 95 -14 133 -18 34 -69 78 -98 85 -52 11 -84 11 -112 1z"/>
</g>
</svg>
